name processed_emg_signals
nRows=33
nColumns=7
 
endheader
time	RGLTMED	RRF	RADDLONG	RST	RTA	RGM
2.94	0.0414735031241605	0.2285964929686389	0.0900120505694137	0.0420668434983326	0.1409345022508644	0.2557482704351999
2.9410000000000003	0.0413677926955648	0.2287948048368636	0.0905409679312106	0.0418855881612152	0.1422701607330148	0.2558125345852684
2.942	0.0412645499620599	0.2290053661127665	0.0910738856875688	0.0416956663063507	0.1436169362393307	0.2558676738850471
2.943	0.0411637191734234	0.2292276436880123	0.091610204835291	0.0414972966063394	0.144973569311318	0.2559144685963414
2.944	0.0410652445858291	0.2294610572210246	0.0921493162120427	0.041290722176756	0.1463387679545731	0.2559537412432595
2.945	0.0409690706836264	0.2297049800974085	0.0926906013911852	0.0410762108953911	0.1477112086293571	0.2559863542001223
2.946	0.0408751424011086	0.2299587405013505	0.0932334336043623	0.0408540556884444	0.1490895373139401	0.2560132070992024
2.947	0.0407834053435196	0.2302216225966151	0.0937771786908481	0.0406245747825857	0.1504723706414478	0.2560352340602292
2.948	0.0406938060065732	0.2304928678157965	0.0943211960725124	0.0403881119219389	0.1518582971107922	0.2560534007444734
2.949	0.0406062919939024	0.2307716762566216	0.0948648397531517	0.0401450365490384	0.153245878371885	0.2560687012372284
2.95	0.0405208122318151	0.2310572081839771	0.0954074593405513	0.0398957439489133	0.1546336505850869	0.2560821547637329
2.951	0.0404373171807929	0.2313485856361283	0.095948401089565	0.0396406553554633	0.1560201258543047	0.256094802244924
2.952	0.0403557590431127	0.2316448941333357	0.0964870089642145	0.0393802180192815	0.1574037937328823	0.2561077027008403
2.953	0.0402760919659314	0.2319451844865787	0.097022625716744	0.0391149052360942	0.1587831228009313	0.2561219295109361
2.954	0.040198272239065	0.2322484747036227	0.0975545939813099	0.0388452163349555	0.1601565623124834	0.256138566542096
2.955	0.0401222584866477	0.2325537519890463	0.098082257380081	0.0385716766253015	0.1615225439105329	0.2561587041564157
2.956	0.0400480118517736	0.232859974834376	0.0986049616393085	0.0382948373019118	0.1628794834077593	0.2561834351123305
2.957	0.039975496173181	0.2331660751939403	0.0991220557130934	0.0380152753069664	0.1642257826305802	0.2562138503736244
2.958	0.0399046781530309	0.2334709607413653	0.0996328929124432	0.0377335931482801	0.1655598313240984	0.2562510348419565
2.959	0.039835527514862	0.2337735172011425	0.1001368320373176	0.0374504186730193	0.1668800091154049	0.256296063029295
2.96	0.0397680171507733	0.2340726107489379	0.1006332385092937	0.0371664047961453	0.1681846875329311	0.2563499946871344
2.961	0.0397021232569246	0.2343670904740346	0.1011214855024303	0.0368822291829901	0.1694722320796326	0.2564138704098762
2.962	0.0396378254565356	0.2346557908968484	0.1016009550697094	0.0365985938853644	0.1707410043580689	0.2564887072298913
2.963	0.0395751069096212	0.2349375345341615	0.1020710392622732	0.036316224930797	0.1719893642454953	0.2565754942218007
2.964	0.0395139544087595	0.2352111345045762	0.1025311412385413	0.0360358718645468	0.1732156721170657	0.2566751881333658
2.965	0.039454358460337	0.2354753971661343	0.1029806763601143	0.035758307244237	0.1744182911147358	0.2567887090598494
2.966	0.0393963133506562	0.235729124777666	0.1034190732714024	0.0354843260869772	0.1755955894591272	0.2569169361780722
2.967	0.0393398171963864	0.2359711181749277	0.1038457749598095	0.035214745268962	0.1767459428009075	0.2570607035558169
2.968	0.0392848719788864	0.2362001794520856	0.1042602397933495	0.034950402877536	0.177867736607776	0.2572207960515312
2.969	0.0392314835619783	0.2364151146390633	0.1046619425325018	0.0346921575157276	0.1789593685826955	0.2573979453188826
2.97	0.0391796616929805	0.2366147363651408	0.1050503753131733	0.0344408875594003	0.1800192511085636	0.257592825930198
2.971	0.0391294199868505	0.2367978664995284	0.1054250485976555	0.034197490367208	0.1810458137141708	0.2578060516323944
2.972	0.0390807758934533	0.2369633387600304	0.1057854920905473	0.0339628814437188	0.18203750555598	0.2580381717485873
